<svg width="28" height="27" viewBox="0 0 28 27" fill="none" xmlns="http://www.w3.org/2000/svg">
	<circle cx="14" cy="13.3333" r="13.3333" fill="black"/>
	<path
		d="M14 6.77469C16.136 6.77469 16.3891 6.78285 17.2326 6.82134C18.0126 6.8569 18.4362 6.98723 18.7181 7.09679C19.0915 7.24191 19.358 7.41527 19.638 7.6952C19.9179 7.97516 20.0913 8.24165 20.2364 8.61507C20.346 8.89697 20.4763 9.32056 20.5119 10.1005C20.5503 10.9441 20.5585 11.1971 20.5585 13.3332C20.5585 15.4693 20.5503 15.7223 20.5119 16.5659C20.4763 17.3459 20.346 17.7695 20.2364 18.0514C20.0913 18.4248 19.9179 18.6913 19.638 18.9712C19.358 19.2512 19.0915 19.4245 18.7181 19.5697C18.4362 19.6792 18.0126 19.8095 17.2326 19.8451C16.3892 19.8836 16.1362 19.8918 14 19.8918C11.8637 19.8918 11.6107 19.8836 10.7673 19.8451C9.98726 19.8095 9.56367 19.6792 9.28177 19.5697C8.90835 19.4245 8.64185 19.2512 8.36192 18.9712C8.08199 18.6913 7.9086 18.4248 7.76348 18.0514C7.65392 17.7695 7.52359 17.3459 7.48803 16.5659C7.44954 15.7223 7.44138 15.4693 7.44138 13.3332C7.44138 11.1971 7.44954 10.9441 7.48803 10.1005C7.52359 9.32056 7.65392 8.89697 7.76348 8.61507C7.9086 8.24165 8.08196 7.97516 8.36192 7.69523C8.64185 7.41527 8.90835 7.24191 9.28177 7.09679C9.56367 6.98723 9.98726 6.8569 10.7673 6.82134C11.6108 6.78285 11.8639 6.77469 14 6.77469ZM14 5.33325C11.8273 5.33325 11.5548 5.34246 10.7015 5.38139C9.85004 5.42023 9.26849 5.55548 8.75963 5.75322C8.23356 5.95767 7.78742 6.23121 7.34265 6.67596C6.8979 7.12073 6.62436 7.56687 6.41994 8.09294C6.22217 8.6018 6.08692 9.18334 6.04808 10.0348C6.00915 10.8881 5.99994 11.1606 5.99994 13.3332C5.99994 15.5059 6.00915 15.7783 6.04808 16.6316C6.08692 17.4831 6.22217 18.0647 6.41994 18.5735C6.62436 19.0996 6.8979 19.5457 7.34265 19.9905C7.78742 20.4352 8.23356 20.7088 8.75963 20.9132C9.26849 21.111 9.85004 21.2462 10.7015 21.2851C11.5548 21.324 11.8273 21.3332 14 21.3332C16.1726 21.3332 16.445 21.324 17.2983 21.2851C18.1498 21.2462 18.7314 21.111 19.2402 20.9132C19.7663 20.7088 20.2125 20.4352 20.6572 19.9905C21.102 19.5457 21.3755 19.0996 21.58 18.5735C21.7777 18.0647 21.913 17.4831 21.9518 16.6316C21.9907 15.7783 21.9999 15.5059 21.9999 13.3332C21.9999 11.1606 21.9907 10.8881 21.9518 10.0348C21.913 9.18334 21.7777 8.6018 21.58 8.09294C21.3755 7.56687 21.102 7.12073 20.6572 6.67596C20.2125 6.23121 19.7663 5.95767 19.2402 5.75322C18.7314 5.55548 18.1498 5.42023 17.2983 5.38139C16.445 5.34246 16.1726 5.33325 14 5.33325Z"
		fill="white"/>
	<path
		d="M14.0037 9.22876C11.7348 9.22876 9.89554 11.068 9.89554 13.3368C9.89554 15.6057 11.7348 17.4449 14.0037 17.4449C16.2725 17.4449 18.1118 15.6057 18.1118 13.3368C18.1118 11.068 16.2725 9.22876 14.0037 9.22876ZM14.0037 16.0035C12.5309 16.0035 11.337 14.8096 11.337 13.3368C11.337 11.8641 12.5309 10.6702 14.0037 10.6702C15.4764 10.6702 16.6703 11.8641 16.6703 13.3368C16.6703 14.8096 15.4764 16.0035 14.0037 16.0035Z"
		fill="white"/>
	<path
		d="M19.2338 9.06402C19.2338 9.59419 18.804 10.024 18.2738 10.024C17.7436 10.024 17.3138 9.59419 17.3138 9.06402C17.3138 8.53382 17.7436 8.104 18.2738 8.104C18.804 8.104 19.2338 8.53382 19.2338 9.06402Z"
		fill="white"/>
</svg>
