<svg width="24" height="25" viewBox="0 0 24 25" fill="none" xmlns="http://www.w3.org/2000/svg">
<circle cx="12" cy="12.8105" r="12" fill="black"/>
<path fill-rule="evenodd" clip-rule="evenodd" d="M8.86485 6.98105C8.86485 7.7281 8.29603 8.33268 7.40649 8.33268C6.55161 8.33268 5.98279 7.7281 6.0004 6.98105C5.98279 6.19769 6.5516 5.61072 7.42353 5.61072C8.29602 5.61072 8.8478 6.19769 8.86485 6.98105ZM6.07192 18.1021V9.40045H8.77627V18.1016H6.07192V18.1021Z" fill="white"/>
<path fill-rule="evenodd" clip-rule="evenodd" d="M10.9438 12.1775C10.9438 11.0921 10.9081 10.1668 10.8723 9.40159H13.2213L13.3462 10.5937H13.3995C13.7555 10.0419 14.645 9.2063 16.0863 9.2063C17.8654 9.2063 19.2 10.3808 19.2 12.9421V18.1033H16.4956V13.281C16.4956 12.1593 16.1045 11.3946 15.1258 11.3946C14.3782 11.3946 13.9337 11.9107 13.756 12.4085C13.6845 12.5867 13.6493 12.8354 13.6493 13.0851V18.1033H10.9449V12.1775H10.9438Z" fill="white"/>
</svg>
