<svg width="27" height="27" viewBox="0 0 27 27" fill="none" xmlns="http://www.w3.org/2000/svg">
<circle cx="13.6666" cy="13.3333" r="13.3333" fill="black"/>
<path d="M19.5711 7.85389C18.4238 7.35052 17.1936 6.97966 15.9072 6.76725C15.8838 6.76315 15.8604 6.77339 15.8483 6.79388C15.6901 7.06298 15.5149 7.41403 15.3921 7.68996C14.0086 7.4919 12.6322 7.4919 11.2771 7.68996C11.1543 7.4079 10.9727 7.06298 10.8137 6.79388C10.8017 6.77408 10.7783 6.76383 10.7549 6.76725C9.46924 6.97898 8.23898 7.34984 7.09101 7.85389C7.08108 7.85798 7.07256 7.86482 7.0669 7.87369C4.73336 11.2074 4.0941 14.4591 4.4077 17.6705C4.40912 17.6862 4.41834 17.7013 4.43111 17.7108C5.97072 18.792 7.46209 19.4483 8.92577 19.8834C8.9492 19.8902 8.97402 19.882 8.98892 19.8636C9.33516 19.4115 9.64379 18.9347 9.90842 18.4334C9.92404 18.404 9.90913 18.3692 9.87721 18.3576C9.38766 18.18 8.92151 17.9635 8.47311 17.7176C8.43764 17.6978 8.4348 17.6493 8.46743 17.6261C8.56179 17.5585 8.65618 17.4881 8.74628 17.4171C8.76258 17.4041 8.7853 17.4014 8.80446 17.4096C11.7503 18.6957 14.9395 18.6957 17.8505 17.4096C17.8697 17.4007 17.8924 17.4035 17.9094 17.4164C17.9995 17.4875 18.0939 17.5585 18.189 17.6261C18.2216 17.6493 18.2195 17.6978 18.184 17.7176C17.7356 17.9683 17.2695 18.18 16.7792 18.3569C16.7473 18.3685 16.7331 18.404 16.7487 18.4334C17.019 18.934 17.3276 19.4108 17.6675 19.8629C17.6817 19.882 17.7072 19.8902 17.7306 19.8834C19.2014 19.4483 20.6928 18.792 22.2324 17.7108C22.2459 17.7013 22.2544 17.6869 22.2558 17.6712C22.6311 13.9584 21.6272 10.7334 19.5945 7.87437C19.5895 7.86482 19.581 7.85798 19.5711 7.85389ZM10.3483 15.7151C9.46144 15.7151 8.73066 14.9365 8.73066 13.9803C8.73066 13.0241 9.44727 12.2455 10.3483 12.2455C11.2565 12.2455 11.9802 13.031 11.966 13.9803C11.966 14.9365 11.2494 15.7151 10.3483 15.7151ZM16.3294 15.7151C15.4425 15.7151 14.7117 14.9365 14.7117 13.9803C14.7117 13.0241 15.4283 12.2455 16.3294 12.2455C17.2375 12.2455 17.9612 13.031 17.947 13.9803C17.947 14.9365 17.2375 15.7151 16.3294 15.7151Z" fill="white"/>
</svg>
