<svg width="26" height="26" viewBox="0 0 26 26" fill="none" xmlns="http://www.w3.org/2000/svg">
<circle cx="13" cy="13" r="13" fill="black"/>
<path fill-rule="evenodd" clip-rule="evenodd" d="M20.8001 8.00062C20.2266 8.2554 19.6094 8.42699 18.962 8.50446C19.6229 8.10825 20.1304 7.48117 20.369 6.73398C19.7513 7.10108 19.0655 7.36678 18.337 7.51081C17.7531 6.88893 16.9206 6.5 16.0008 6.5C14.2334 6.5 12.8004 7.93302 12.8004 9.70039C12.8004 9.95101 12.829 10.1954 12.8836 10.4299C10.2235 10.2968 7.86542 9.02235 6.2868 7.086C6.01122 7.55865 5.85367 8.10826 5.85367 8.69478C5.85367 9.8049 6.41783 10.7845 7.27733 11.3586C6.75217 11.3419 6.25924 11.1979 5.82715 10.9582V10.9982C5.82715 12.5493 6.93104 13.8424 8.39422 14.1373C8.12592 14.21 7.84306 14.2496 7.55136 14.2496C7.34493 14.2496 7.14422 14.2293 6.94872 14.1918C7.35585 15.4632 8.53825 16.3887 9.93852 16.4147C8.84347 17.2726 7.46348 17.7848 5.9639 17.7848C5.70496 17.7848 5.45018 17.7697 5.20007 17.7396C6.61646 18.6474 8.29855 19.1778 10.1059 19.1778C15.9925 19.1778 19.2116 14.301 19.2116 10.0722C19.2116 9.93333 19.209 9.79502 19.2022 9.65827C19.8283 9.2059 20.3711 8.64226 20.8001 8.00062Z" fill="white"/>
</svg>
