<svg width="126" height="52" viewBox="0 0 126 52" fill="none" xmlns="http://www.w3.org/2000/svg">
<path d="M23 28.6H29.48L21.32 0.4H8.12L0 28.6H6.48L9 19.56H20.44L23 28.6ZM10.56 13.96L13.92 2H15.52L18.88 13.96H10.56Z" fill="#100F0F"/>
<path d="M42.4231 0.4H32.3031V28.6H38.7031V20.2H42.4231C49.5431 20.2 54.9831 18.84 54.9831 10.28C54.9831 1.76 49.5431 0.4 42.4231 0.4ZM42.8231 14.6H38.7031V6H42.8231C46.6231 6 48.5831 6.4 48.5831 10.28C48.5831 14.2 46.6231 14.6 42.8231 14.6Z" fill="#100F0F"/>
<path d="M58.2016 28.6H78.3216V23H64.6016V17.28H76.3216V11.68H64.6016V6H78.3216V0.4H58.2016V28.6Z" fill="#100F0F"/>
<path d="M89.7831 6.4C92.1431 6.4 93.6231 5.28 93.6231 3.2C93.6231 1.16 92.1431 0 89.7831 0C87.4231 0 86.0231 1.16 86.0231 3.2C86.0231 5.28 87.4231 6.4 89.7831 6.4ZM81.5031 28.6H99.1031V23H93.3831V11.36C93.3831 9.12 92.1431 7.88 89.9031 8L82.3031 8.4V14L87.2231 13.76V23H81.5031V28.6Z" fill="#547482"/>
<path d="M113.682 13.6C116.762 13.6 117.842 15 117.842 18.68V28.6H124.242V17.68C124.242 11.44 121.122 8 115.962 8C111.642 8 109.122 10.84 108.322 14.44H106.722L107.922 10.84V8.4H101.522V28.6H107.922V21.12C107.922 15.44 110.202 13.6 113.682 13.6Z" fill="#547482"/>
<path d="M0 44.118C0 48.694 2.834 51.19 8.268 51.19C13.702 51.19 16.562 48.694 16.562 44.118V32.6H12.402V42.272C12.402 45.548 12.09 47.55 8.268 47.55C4.446 47.55 4.16 45.548 4.16 42.272V32.6H0V44.118Z" fill="#100F0F"/>
<path d="M36.8168 32.6H30.7328L23.0628 39.1V32.6H18.9028V50.93H23.0628V44.456L30.7328 50.93H36.8168L25.7668 41.778L36.8168 32.6Z" fill="#100F0F"/>
<path d="M38.3774 50.93H42.5374V44.482H49.7134V50.93H53.8734V45.08C53.8734 43.65 53.0934 42.87 51.6634 42.87H48.9854V41.83C51.1954 41.57 53.6394 40.738 53.6394 37.722C53.6394 33.614 49.8434 32.6 45.4754 32.6H38.3774V50.93ZM42.5374 40.842V36.24H45.4754C47.9454 36.24 49.4794 36.24 49.4794 38.554C49.4794 40.842 47.9454 40.842 45.4754 40.842H42.5374Z" fill="#100F0F"/>
<path d="M70.6448 50.93H74.8568L69.5528 32.6H60.9728L55.6948 50.93H59.9068L61.5448 45.054H68.9808L70.6448 50.93ZM62.5588 41.414L64.7428 33.64H65.7828L67.9668 41.414H62.5588Z" fill="#100F0F"/>
<path d="M89.1658 36.24V32.6H76.6858V36.24H80.8458V47.29H76.6858V50.93H89.1658V47.29H85.0058V36.24H89.1658Z" fill="#100F0F"/>
<path d="M91.52 50.93H95.68V36.24L94.9 33.64H95.94L101.478 50.93H109.668V32.6H105.508V47.29L106.288 49.89H105.248L99.71 32.6H91.52V50.93Z" fill="#100F0F"/>
<path d="M112.29 50.93H125.368V47.29H116.45V43.572H124.068V39.932H116.45V36.24H125.368V32.6H112.29V50.93Z" fill="#100F0F"/>
</svg>
