<svg width="191" height="127" viewBox="0 0 191 127" fill="none" xmlns="http://www.w3.org/2000/svg">
<g filter="url(#filter0_d_11777_3941)">
<path d="M14 41.6001C14 26.5151 14 18.9727 18.6863 14.2864C23.3726 9.6001 30.9151 9.6001 46 9.6001H145C160.085 9.6001 167.627 9.6001 172.314 14.2864C177 18.9727 177 26.5152 177 41.6001V75.4001C177 90.485 177 98.0275 172.314 102.714C167.627 107.4 160.085 107.4 145 107.4H46C30.9151 107.4 23.3726 107.4 18.6863 102.714C14 98.0275 14 90.485 14 75.4001V41.6001Z" fill="black"/>
</g>
<path d="M86.9336 61.4482C86.9509 61.4482 86.9625 61.4482 86.9853 61.4598C88.1759 61.6439 89.3142 61.7759 90.562 61.8509C93.0172 61.9889 95.4728 61.9026 97.8418 61.5633H97.9626C97.9798 61.5749 97.9915 61.5749 98.0027 61.5749C98.9168 61.6728 99.7908 61.9371 100.556 62.3627L102.925 59.9938C108.014 55.0541 107.053 50.9138 106.404 49.3618C105.46 47.0904 103.316 45.5898 101.05 45.5898H100.952C98.2321 45.6472 95.9032 47.7635 94.5575 51.3976L94.2126 52.3289L93.8676 51.3976C92.5219 47.7635 90.193 45.6472 87.4791 45.5898H87.37C85.0985 45.5898 82.9594 47.0908 82.0052 49.3618C81.3554 50.9145 80.4007 55.0604 85.4728 59.9825L86.9336 61.4482Z" fill="white"/>
<path d="M101.189 62.7647L101.201 62.7763C101.35 62.8742 101.465 62.9949 101.592 63.0984C102.938 62.5176 104.001 61.9769 104.881 61.4193C104.427 61.0455 103.881 60.7811 103.288 60.6604L101.189 62.7647Z" fill="white"/>
<path d="M105.668 61.7937L105.64 61.8109C104.714 62.4318 103.587 63.0187 102.161 63.6512C102.592 64.1402 102.909 64.6749 103.064 65.2441C103.081 65.3131 103.076 65.3648 103.093 65.4282C105.37 64.7728 107.417 63.7608 109.176 62.4095C108.958 62.1335 108.584 61.7541 107.998 61.5354C106.876 61.1323 105.864 61.6843 105.668 61.7938L105.668 61.7937Z" fill="white"/>
<path d="M99.079 71.2764C108.866 68.9359 112.512 65.5376 112.736 64.2493C112.776 64.0306 112.903 63.358 112.558 62.9207C112.155 62.3973 111.253 62.4318 111.086 62.4318C110.528 62.4607 110.091 62.6849 109.89 62.8172C107.946 64.3583 105.646 65.4971 103.07 66.2042C103.058 66.2331 103.058 66.2732 103.053 66.3021C102.65 67.1071 101.351 67.1187 100.724 67.1299L99.085 67.1416C97.2563 67.1588 94.7149 67.1817 91.6267 67.2106C91.4198 67.2106 91.2646 67.0437 91.2529 66.8484C91.2529 66.6414 91.4198 66.4745 91.6267 66.4745C94.7145 66.4457 97.2447 66.4228 99.0734 66.4055L100.724 66.3939C101.126 66.3823 102.19 66.3767 102.391 65.974C102.443 65.8761 102.431 65.698 102.362 65.4449C102.167 64.7377 101.735 64.2087 101.35 63.8521C101.321 63.8348 101.298 63.8003 101.269 63.7831C101.062 63.599 100.878 63.461 100.769 63.3803C99.74 62.6327 98.6358 62.38 97.8825 62.311C95.4846 62.6443 93.0062 62.7422 90.5105 62.587C89.2454 62.5063 88.0837 62.38 86.9454 62.2015C86.8363 62.1842 86.7958 62.1842 86.7673 62.1842C86.5029 62.1325 86.2956 62.1152 86.0886 62.098C82.3623 61.8048 78.6592 63.6679 76.3994 66.9743L76.1523 67.3365C76.0316 67.5033 75.9281 67.6586 75.8074 67.8254C78.9702 69.0332 81.8626 70.7351 84.4557 72.926C89.4471 72.938 94.3812 72.3973 99.079 71.2762L99.079 71.2764Z" fill="white"/>
<path d="M85.5257 74.8705C82.0008 71.443 77.8376 69.0223 73.1286 67.6765L69 77.9809H84.5834L85.5257 74.8705Z" fill="white"/>
<path d="M108.854 37.2171C109.061 36.7169 108.964 36.1534 108.607 35.8197C108.187 35.4057 107.48 35.3885 106.67 35.7623L105.767 36.1763L106.181 35.2734C106.555 34.4683 106.537 33.7611 106.123 33.3356C105.79 32.979 105.232 32.8811 104.726 33.0885C103.978 33.3934 103.564 34.2501 103.576 35.429V38.3675H106.514C107.664 38.39 108.55 37.9644 108.855 37.2171L108.854 37.2171Z" fill="white"/>
<path d="M94.8526 44.8076L98.3086 43.3355C99.7116 42.7663 100.511 41.8405 100.488 40.788C100.488 40.0809 100.074 39.4539 99.4642 39.2241C98.7398 38.9482 97.8831 39.2759 97.1065 40.127L96.4394 40.8631L96.4683 39.8627C96.4972 38.7127 96.1117 37.8904 95.4046 37.5856C95.2205 37.505 95.0135 37.4648 94.8121 37.4648C94.3693 37.4648 93.9092 37.649 93.5759 37.9939C92.8399 38.7416 92.7593 39.9605 93.369 41.3347L94.8526 44.8076Z" fill="white"/>
<defs>
<filter id="filter0_d_11777_3941" x="0" y="0.600098" width="191" height="125.8" filterUnits="userSpaceOnUse" color-interpolation-filters="sRGB">
<feFlood flood-opacity="0" result="BackgroundImageFix"/>
<feColorMatrix in="SourceAlpha" type="matrix" values="0 0 0 0 0 0 0 0 0 0 0 0 0 0 0 0 0 0 127 0" result="hardAlpha"/>
<feMorphology radius="10" operator="erode" in="SourceAlpha" result="effect1_dropShadow_11777_3941"/>
<feOffset dy="5"/>
<feGaussianBlur stdDeviation="12"/>
<feColorMatrix type="matrix" values="0 0 0 0 0.0875 0 0 0 0 0.0732813 0 0 0 0 0.0732813 0 0 0 0.2 0"/>
<feBlend mode="normal" in2="BackgroundImageFix" result="effect1_dropShadow_11777_3941"/>
<feBlend mode="normal" in="SourceGraphic" in2="effect1_dropShadow_11777_3941" result="shape"/>
</filter>
</defs>
</svg>
