<svg width="191" height="126" viewBox="0 0 191 126" fill="none" xmlns="http://www.w3.org/2000/svg">
<g filter="url(#filter0_d_11656_3724)">
<path d="M13.9999 41C13.9999 25.9151 13.9999 18.3726 18.6862 13.6863C23.3725 9 30.9149 9 45.9999 9H145C160.085 9 167.627 9 172.314 13.6863C177 18.3726 177 25.9151 177 41V74.8C177 89.8849 177 97.4274 172.314 102.114C167.627 106.8 160.085 106.8 145 106.8H45.9999C30.9149 106.8 23.3725 106.8 18.6862 102.114C13.9999 97.4274 13.9999 89.8849 13.9999 74.8V41Z" fill="white"/>
</g>
<rect x="72.1211" y="57.646" width="33" height="33" rx="6.5" transform="rotate(-45.469 72.1211 57.646)" stroke="black" stroke-width="3"/>
<defs>
<filter id="filter0_d_11656_3724" x="-0.00012207" y="0" width="191" height="125.8" filterUnits="userSpaceOnUse" color-interpolation-filters="sRGB">
<feFlood flood-opacity="0" result="BackgroundImageFix"/>
<feColorMatrix in="SourceAlpha" type="matrix" values="0 0 0 0 0 0 0 0 0 0 0 0 0 0 0 0 0 0 127 0" result="hardAlpha"/>
<feMorphology radius="10" operator="erode" in="SourceAlpha" result="effect1_dropShadow_11656_3724"/>
<feOffset dy="5"/>
<feGaussianBlur stdDeviation="12"/>
<feColorMatrix type="matrix" values="0 0 0 0 0.0875 0 0 0 0 0.0732813 0 0 0 0 0.0732813 0 0 0 0.2 0"/>
<feBlend mode="normal" in2="BackgroundImageFix" result="effect1_dropShadow_11656_3724"/>
<feBlend mode="normal" in="SourceGraphic" in2="effect1_dropShadow_11656_3724" result="shape"/>
</filter>
</defs>
</svg>
