<svg width="16" height="16" viewBox="0 0 16 16" fill="none" xmlns="http://www.w3.org/2000/svg">
<path fill-rule="evenodd" clip-rule="evenodd" d="M10.8873 0.875547C11.3606 0.875547 11.8331 0.942297 12.2823 1.09305C15.0506 1.99305 16.0481 5.03055 15.2148 7.68555C14.7423 9.0423 13.9698 10.2805 12.9581 11.2923C11.5098 12.6948 9.92058 13.9398 8.20983 15.0123L8.02233 15.1255L7.82733 15.0048C6.11058 13.9398 4.51233 12.6948 3.05058 11.2848C2.04558 10.273 1.27233 9.0423 0.792329 7.68555C-0.0551707 5.03055 0.94233 1.99305 3.74058 1.0773C3.95808 1.0023 4.18233 0.949797 4.40733 0.920547H4.49733C4.70808 0.889797 4.91733 0.875547 5.12733 0.875547H5.20983C5.68233 0.889797 6.13983 0.972297 6.58308 1.12305H6.62733C6.65733 1.1373 6.67983 1.15305 6.69483 1.1673C6.86058 1.22055 7.01733 1.28055 7.16733 1.36305L7.45233 1.49055C7.5212 1.52728 7.5985 1.5834 7.6653 1.6319C7.70763 1.66263 7.74574 1.6903 7.77483 1.70805C7.78707 1.71527 7.79951 1.72253 7.81205 1.72985C7.87636 1.76739 7.94334 1.80649 7.99983 1.8498C8.83308 1.21305 9.84483 0.868047 10.8873 0.875547ZM12.8823 6.27555C13.1898 6.2673 13.4523 6.02055 13.4748 5.7048V5.61555C13.4973 4.5648 12.8606 3.61305 11.8923 3.24555C11.5848 3.1398 11.2473 3.30555 11.1348 3.62055C11.0298 3.93555 11.1948 4.28055 11.5098 4.3923C11.9906 4.5723 12.3123 5.04555 12.3123 5.5698V5.59305C12.2981 5.7648 12.3498 5.93055 12.4548 6.05805C12.5598 6.18555 12.7173 6.2598 12.8823 6.27555Z" fill="white"/>
</svg>
