<svg width="24" height="25" viewBox="0 0 24 25" fill="none" xmlns="http://www.w3.org/2000/svg">
<circle cx="12" cy="12.8105" r="12" fill="black"/>
<path fill-rule="evenodd" clip-rule="evenodd" d="M19.2 8.19574C18.6706 8.43092 18.1009 8.58931 17.5034 8.66082C18.1134 8.29509 18.5818 7.71624 18.8022 7.02653C18.232 7.36539 17.5989 7.61065 16.9264 7.7436C16.3874 7.16956 15.619 6.81055 14.7699 6.81055C13.1385 6.81055 11.8157 8.13334 11.8157 9.76475C11.8157 9.99609 11.8421 10.2217 11.8925 10.4381C9.43702 10.3153 7.26037 9.13887 5.80318 7.35147C5.5488 7.78776 5.40337 8.29509 5.40337 8.8365C5.40337 9.86123 5.92413 10.7655 6.71752 11.2954C6.23275 11.28 5.77774 11.1471 5.37889 10.9258V10.9628C5.37889 12.3945 6.39786 13.5882 7.74849 13.8603C7.50083 13.9275 7.23973 13.964 6.97046 13.964C6.77992 13.964 6.59465 13.9453 6.41418 13.9107C6.79 15.0842 7.88144 15.9386 9.174 15.9626C8.16318 16.7545 6.88935 17.2273 5.50512 17.2273C5.2661 17.2273 5.03091 17.2134 4.80005 17.1855C6.10748 18.0236 7.66018 18.5131 9.32855 18.5131C14.7623 18.5131 17.7337 14.0115 17.7337 10.1079C17.7337 9.97977 17.7313 9.85211 17.7251 9.72587C18.303 9.3083 18.8041 8.78802 19.2 8.19574Z" fill="white"/>
</svg>
