<svg width="16" height="17" viewBox="0 0 16 17" fill="none" xmlns="http://www.w3.org/2000/svg">
<path fill-rule="evenodd" clip-rule="evenodd" d="M9.00008 2.66827C9.00008 2.11599 8.55237 1.66827 8.00008 1.66827C7.4478 1.66827 7.00008 2.11599 7.00008 2.66827V7.00161L2.66675 7.00161C2.11446 7.00161 1.66675 7.44932 1.66675 8.00161C1.66675 8.55389 2.11446 9.00161 2.66675 9.00161L7.00008 9.00161V13.3349C7.00008 13.8872 7.4478 14.3349 8.00008 14.3349C8.55237 14.3349 9.00008 13.8872 9.00008 13.3349V9.00161L13.3334 9.00161C13.8857 9.00161 14.3334 8.55389 14.3334 8.00161C14.3334 7.44932 13.8857 7.00161 13.3334 7.00161L9.00008 7.00161V2.66827Z" fill="#030D18"/>
</svg>
